# xmcd
#
# Track frame offsets:
# 150
# 70015
# 158960
# 229970
#
# Disc length: 4085 seconds
#
# Revision: 0
# Processed by: cddbd v1.4PL0 Copyright (c) Steve Scherf et al.
# Submitted via: Audion 2.5.0 (http://www.panic.com/audion/)
#
DISCID=2d0ff304
DTITLE=STS9 - High Sierra Late Nite
DYEAR=1900
DGENRE=
TTITLE0=STS9
TTITLE1=What is Love
TTITLE2=Circus
TTITLE3=Ramone and Emiglio
EXTD=
EXTT0=
EXTT1=
EXTT2=
EXTT3=
PLAYORDER=
